<?xml version="1.0" encoding="utf-8"?>

<!-- Uploaded to: SVG Repo, www.svgrepo.com, Generator: SVG Repo Mixer Tools -->
<svg width="800px" height="800px" viewBox="0 -9.89 201.3 201.3" xmlns="http://www.w3.org/2000/svg">

<defs>

<style>.cls-1{fill:#ffffff;}</style>

</defs>

<g id="Layer_2" data-name="Layer 2">

<g id="Layer_1-2" data-name="Layer 1">

<path d="M111.11,18c2.57-.92,5-1.76,7.36-2.63,9.29-3.38,18.85-5.25,28.6-2.86,15.66,3.83,27.21,12.85,33.49,28.06,2.82,6.83,1.69,13.47-.76,20-.78,2.1-1.9,4.07-3,6.44A28.43,28.43,0,0,0,180,70c6.07,4.1,10.53,9.68,14.57,15.62a37.39,37.39,0,0,1,6.78,21.77c0,7.78-.37,15.35-3.08,22.82a44.83,44.83,0,0,1-20.63,24.31,69,69,0,0,1-30.93,9.32c-1.12.07-2.23.35-3.67.59a47.2,47.2,0,0,0-2.85,5.07c-2.15,5.15-6.15,8.24-11.16,10-8.84,3.15-17.43,2.73-25.33-2.81-4.42-3.1-8.68-6.42-13.06-9.68a18,18,0,0,0-2,1.74c-6,7.13-13.51,9.91-22.84,9.21-13.22-1-25.43-4.94-36.07-12.52-9-6.42-15.5-15.18-17.83-26.41-.7-3.36-1.34-6.74-2-10.11-1.44-7.46-1.47-14.81,2.21-22-1.38-1.32-2.61-2.43-3.76-3.62C3,97.88,1.49,90.89.27,83.82a33.41,33.41,0,0,1-.25-6c.14-17.92,7-24,20.61-30.3,4.11-1.9,8.61-3,12.54-4.32,2.3-6.32,4.33-12.25,6.64-18.07a57.63,57.63,0,0,1,4.61-9.19C53.28,1.8,65.78-1.82,79.83.78a49,49,0,0,1,25.1,12.34C106.78,14.86,108.93,16.28,111.11,18ZM42.18,51.27c-3.29,1-6,1.79-8.72,2.78-4.56,1.68-9.15,3.33-13.57,5.34-5.26,2.41-9.09,6.7-9.76,12.31-1.16,9.74,1,18.82,8.74,25.74,2.12,1.9,4.59,3.46,5.41,7-2.42,4.77-4.88,9.92-4.58,15.86s1,12,3.17,17.69,5.06,10.94,9.75,14.93c6.84,5.84,14.5,10.17,23.41,12,2.25.47,4.51.84,6.74,1.39,8.51,2.08,15.13-1.13,20.63-7.37.93-1.06,1.4-2.5,2.3-3.6,2.5-3.07,5.68-3.72,9-1.41a30.61,30.61,0,0,1,5.4,5.39c4.82,5.61,10.43,9.9,18,10.64,6.06.6,11.49-.55,14.42-6.81a32,32,0,0,1,2.07-3.76c2.26-3.46,5-6.09,9.57-6.21,3.12-.09,6.2-1.14,9.32-1.46,6.39-.64,12.2-2.88,17.87-5.75,17.87-9,23.67-30.76,17.86-48-2.63-7.83-8.29-13.61-14.32-19-1.91-1.71-3.94-3.31-5.79-5.1a5,5,0,0,1-1-6.29,33.34,33.34,0,0,0,2.5-5.44c2-7,2.82-14.16-.58-20.81C163.41,28.15,151.65,23,137.63,22.7c-7.82-.18-15.32,2.2-22.25,5.83-4.3,2.26-7.63,1.57-10.69-1.91a14.9,14.9,0,0,0-1.76-1.88C95.32,18.56,87.38,13.26,77.32,11.5s-21,3.36-25.1,10.93A80.69,80.69,0,0,0,45,41.65C44.17,44.93,43.1,48.15,42.18,51.27Z"/>

<path class="cls-1" d="M42.18,51.27c.92-3.12,2-6.34,2.82-9.62a80.69,80.69,0,0,1,7.22-19.22c4.14-7.57,15-12.71,25.1-10.93s18,7.06,25.61,13.24a14.9,14.9,0,0,1,1.76,1.88c3.06,3.48,6.39,4.17,10.69,1.91,6.93-3.63,14.43-6,22.25-5.83,14,.33,25.78,5.45,32.48,18.57,3.4,6.65,2.62,13.84.58,20.81a33.34,33.34,0,0,1-2.5,5.44,5,5,0,0,0,1,6.29c1.85,1.79,3.88,3.39,5.79,5.1,6,5.4,11.69,11.18,14.32,19,5.81,17.29,0,39-17.86,48.05-5.67,2.87-11.48,5.11-17.87,5.75-3.12.32-6.2,1.37-9.32,1.46-4.62.12-7.31,2.75-9.57,6.21a32,32,0,0,0-2.07,3.76c-2.93,6.26-8.36,7.41-14.42,6.81-7.59-.74-13.2-5-18-10.64a30.61,30.61,0,0,0-5.4-5.39c-3.37-2.31-6.55-1.66-9,1.41-.9,1.1-1.37,2.54-2.3,3.6-5.5,6.24-12.12,9.45-20.63,7.37-2.23-.55-4.49-.92-6.74-1.39-8.91-1.85-16.57-6.18-23.41-12-4.69-4-7.59-9.24-9.75-14.93S20,126.32,19.7,120.28s2.16-11.09,4.58-15.86c-.82-3.52-3.29-5.08-5.41-7-7.73-6.92-9.9-16-8.74-25.74.67-5.61,4.5-9.9,9.76-12.31,4.42-2,9-3.66,13.57-5.34C36.13,53.06,38.89,52.31,42.18,51.27Z"/>

</g>

</g>

</svg>